<svg width="15" height="15" viewBox="0 0 15 15" fill="none" xmlns="http://www.w3.org/2000/svg">
<path d="M9.72938 4.35142e-08C10.0586 8.16448e-05 10.3795 0.0992142 10.6465 0.283356C10.9135 0.467497 11.1132 0.727313 11.2172 1.026L11.6431 2.25H14.2157C14.4237 2.25 14.6232 2.32902 14.7703 2.46967C14.9173 2.61032 15 2.80109 15 3C15 3.19891 14.9173 3.38968 14.7703 3.53033C14.6232 3.67098 14.4237 3.75 14.2157 3.75L14.2133 3.80325L13.5333 12.9105C13.4909 13.478 13.2252 14.009 12.7898 14.3967C12.3544 14.7844 11.7816 14.9999 11.1866 15H4.69566C4.10072 14.9999 3.5279 14.7844 3.09249 14.3967C2.65709 14.009 2.39143 13.478 2.34899 12.9105L1.66899 3.8025C1.66757 3.78503 1.66679 3.76752 1.66664 3.75C1.45863 3.75 1.25913 3.67098 1.11204 3.53033C0.964957 3.38968 0.882324 3.19891 0.882324 3C0.882324 2.80109 0.964957 2.61032 1.11204 2.46967C1.25913 2.32902 1.45863 2.25 1.66664 2.25H4.23919L4.66507 1.026C4.76915 0.727191 4.96894 0.467289 5.23613 0.283136C5.50331 0.0989837 5.82434 -7.57959e-05 6.1537 4.35142e-08H9.72938ZM12.6447 3.75H3.23762L3.9137 12.8032C3.92778 12.9924 4.01627 13.1694 4.16135 13.2987C4.30644 13.428 4.49735 13.4999 4.69566 13.5H11.1866C11.3849 13.4999 11.5759 13.428 11.7209 13.2987C11.866 13.1694 11.9545 12.9924 11.9686 12.8032L12.6447 3.75ZM6.37252 6C6.56462 6.00002 6.75004 6.06747 6.8936 6.18954C7.03715 6.31161 7.12887 6.47981 7.15134 6.66225L7.15683 6.75V10.5C7.15661 10.6912 7.08007 10.875 6.94284 11.014C6.8056 11.153 6.61805 11.2367 6.41849 11.2479C6.21892 11.2591 6.02242 11.197 5.86912 11.0743C5.71583 10.9516 5.61731 10.7776 5.5937 10.5878L5.58821 10.5V6.75C5.58821 6.55109 5.67084 6.36032 5.81793 6.21967C5.96501 6.07902 6.16451 6 6.37252 6ZM9.50978 6C9.71779 6 9.91728 6.07902 10.0644 6.21967C10.2115 6.36032 10.2941 6.55109 10.2941 6.75V10.5C10.2941 10.6989 10.2115 10.8897 10.0644 11.0303C9.91728 11.171 9.71779 11.25 9.50978 11.25C9.30176 11.25 9.10227 11.171 8.95518 11.0303C8.80809 10.8897 8.72546 10.6989 8.72546 10.5V6.75C8.72546 6.55109 8.80809 6.36032 8.95518 6.21967C9.10227 6.07902 9.30176 6 9.50978 6ZM9.72938 1.5H6.15291L5.89174 2.25H9.99056L9.72938 1.5Z" fill="#616161"/>
</svg>
