<svg width="792" height="508" viewBox="0 0 792 508" fill="none" xmlns="http://www.w3.org/2000/svg">
    <path fill-rule="evenodd" clip-rule="evenodd"
        d="M391.252 9.31398C503.093 -7.10082 632.999 -8.99541 708.342 64.6718C786.459 141.051 818.402 269.59 767.01 361.495C723.636 439.062 578.394 411.779 485.173 441.385C410.865 464.985 345.877 520.789 268.784 505.336C161.605 483.852 23.9655 455.209 2.39016 361.495C-19.0863 268.211 109.216 210.129 185.015 141.48C247.233 85.1313 302.635 22.3202 391.252 9.31398Z"
        fill="#1270B0" fill-opacity="0.1" />
    <path
        d="M474.217 443.318H335.531L335.667 441.822L384.727 438.421L412.461 436.487L472.55 432.319L474.217 443.318Z"
        fill="#DEE8F5" />
    <path opacity="0.07"
        d="M474.217 443.318H335.531L335.667 441.822L384.727 438.421L412.461 436.487L472.55 432.319L474.217 443.318Z"
        fill="#0F1011" />
    <path
        d="M491.976 443.318H330.774C330.972 442.215 331.179 441.12 331.387 440.026L331.945 440.19L333.558 428.999L384.998 425.789L412.317 424.083L491.282 419.149L491.976 443.318Z"
        fill="#262626" />
    <path
        d="M427.335 166.512C427.314 166.134 427.314 165.757 427.314 165.378C427.314 161.56 427.46 157.404 427.832 152.872L423.149 151.992L394.726 146.663C395.286 154.114 395.168 161.602 394.374 169.032C394.291 169.871 394.187 170.732 394.062 171.592C394.057 171.67 394.043 171.748 394.021 171.823C393.856 172.956 393.669 174.089 393.462 175.223C393.338 175.957 393.192 176.691 393.026 177.425C392.86 178.37 392.633 179.293 392.383 180.216C392.134 181.139 391.886 182.04 391.596 182.945C391.326 183.847 391.035 184.729 390.704 185.59C390.099 187.289 389.364 188.937 388.506 190.521V190.542C386.936 193.648 384.731 196.381 382.038 198.558H434.117C430.859 192.869 427.502 183.027 427.335 166.512Z"
        fill="#FFD7C7" />
    <path opacity="0.15"
        d="M388.47 190.571L415.986 169.264L394.375 169.037C393.55 176.399 391.849 184.301 388.47 190.571Z"
        fill="black" />
    <path
        d="M446.632 135.741C444.339 149.148 437.112 161.841 425.429 166.172C411.561 171.312 401.289 171.66 385.299 171.66C363.478 171.66 364.2 148.626 363.584 125.414C362.969 102.109 364.799 77.1112 373.423 68.9905C390.637 52.781 441.158 63.0459 447.307 90.1578C450.486 104.18 448.814 122.981 446.632 135.741Z"
        fill="#FFD7C7" />
    <path
        d="M351.892 82.463C351.892 82.463 342.956 80.4429 345.405 71.4275C347.027 65.4455 354.595 66.7761 354.595 66.7761C354.595 66.7761 347.426 65.4482 347.426 59.1151C347.426 55.1222 350.456 48.3623 359.598 52.2265C370.32 56.7621 382.556 56.1793 391.854 54.5978C397.279 53.6748 402.57 52.388 407.832 52.3177L407.86 52.3114V52.3177C414.039 52.2088 420.199 53.043 426.132 54.7921C442.759 59.8265 467.922 74.9169 462.573 109.127C456.602 147.307 438.902 161.908 431.115 166.592C430.654 166.873 430.136 167.044 429.601 167.093C429.065 167.141 428.526 167.066 428.023 166.873C427.52 166.68 427.068 166.374 426.699 165.977C426.33 165.581 426.056 165.105 425.895 164.586C423.687 157.43 419.877 139.426 420.946 102.3C369.839 99.7624 355.135 98.9926 355.135 98.9926C355.135 98.9926 343.102 99.4486 343.102 90.5527C343.102 81.6568 351.892 82.463 351.892 82.463Z"
        fill="#BB785E" />
    <path
        d="M394.766 125.414C396.424 125.414 397.769 124.053 397.769 122.374C397.769 120.695 396.424 119.335 394.766 119.335C393.107 119.335 391.762 120.695 391.762 122.374C391.762 124.053 393.107 125.414 394.766 125.414Z"
        fill="#0F1011" />
    <path
        d="M371.067 123.447C372.725 123.447 374.07 122.086 374.07 120.407C374.07 118.728 372.725 117.367 371.067 117.367C369.408 117.367 368.064 118.728 368.064 120.407C368.064 122.086 369.408 123.447 371.067 123.447Z"
        fill="#0F1011" />
    <path
        d="M365.861 113.927H365.88L373.838 113.827C374.212 113.824 374.57 113.672 374.833 113.402C375.096 113.132 375.242 112.768 375.24 112.389C375.237 112.011 375.086 111.648 374.82 111.382C374.554 111.116 374.194 110.968 373.82 110.97H373.801L365.843 111.071C365.657 111.072 365.474 111.11 365.303 111.183C365.133 111.256 364.978 111.362 364.848 111.495C364.585 111.765 364.438 112.129 364.441 112.508C364.443 112.887 364.594 113.249 364.86 113.515C365.127 113.781 365.487 113.93 365.861 113.927Z"
        fill="#0F1011" />
    <path
        d="M401.254 116.864C401.599 116.864 401.933 116.735 402.191 116.503C402.449 116.27 402.614 115.95 402.655 115.603C402.695 115.255 402.608 114.905 402.411 114.618C402.213 114.331 401.918 114.128 401.582 114.047L393.737 112.131C393.374 112.046 392.992 112.109 392.675 112.307C392.357 112.505 392.13 112.822 392.043 113.189C391.956 113.556 392.016 113.943 392.209 114.265C392.403 114.588 392.714 114.82 393.076 114.91L400.921 116.826C401.03 116.851 401.142 116.864 401.254 116.864Z"
        fill="#0F1011" />
    <path
        d="M410.392 129.815C410.116 133.222 411.189 136.6 413.374 139.207C415.559 141.814 418.677 143.435 422.043 143.715C425.409 143.994 428.747 142.909 431.322 140.697C433.898 138.485 435.5 135.329 435.776 131.921C436.351 124.826 431.154 118.253 424.125 118.02C415.049 117.721 410.967 122.716 410.392 129.815Z"
        fill="#FFD7C7" />
    <g opacity="0.15">
        <path
            d="M381.431 139.239C381.68 139.239 381.92 139.149 382.109 138.985C382.297 138.821 382.421 138.594 382.458 138.346C382.495 138.097 382.443 137.843 382.31 137.63C382.177 137.417 381.974 137.26 381.736 137.187L375.626 135.288L379.9 125.656C380.012 125.402 380.021 125.113 379.923 124.853C379.826 124.592 379.63 124.382 379.379 124.268C379.128 124.154 378.842 124.145 378.585 124.244C378.328 124.343 378.12 124.541 378.007 124.795L373.253 135.511C373.192 135.647 373.161 135.794 373.161 135.943C373.161 136.092 373.193 136.239 373.254 136.375C373.314 136.51 373.403 136.631 373.513 136.73C373.624 136.828 373.754 136.901 373.894 136.945L381.126 139.193C381.225 139.224 381.328 139.239 381.431 139.239Z"
            fill="black" />
    </g>
    <path
        d="M393.375 146.321C393.375 146.321 382.287 147.506 374.515 144.755C374.515 144.755 374.576 152.143 383.351 152.873C392.127 153.602 393.375 146.321 393.375 146.321Z"
        fill="#F8FCFF" />
    <path
        d="M488.732 383.963C492.454 404.958 497.734 426.181 501.176 443.318H317.97C320.484 424.95 324.944 401.812 327.494 375.646C328.881 361.893 329.516 348.073 329.395 334.249C329.224 318.653 326.927 301.552 324.98 284.817C319.646 239.06 316.934 196.003 367.292 193.805C367.428 193.796 367.572 193.796 367.725 193.787H367.736L368.394 193.76C369.574 193.723 371.124 193.696 372.989 193.669C373.028 193.664 373.067 193.664 373.106 193.669C373.205 193.659 373.295 193.659 373.394 193.659C373.52 196.368 377.503 198.438 383.558 199.87C383.594 199.879 383.639 199.889 383.684 199.898C396.542 202.907 418.563 203.053 432.709 200.308C432.844 200.29 432.97 200.262 433.105 200.235C437.565 199.341 441.214 198.156 443.485 196.678C443.879 196.426 444.253 196.142 444.602 195.83C445.355 195.216 445.863 194.348 446.035 193.386C446.638 193.386 447.233 193.395 447.828 193.404C449.513 193.441 451.171 193.513 452.792 193.641C469.66 194.882 483.427 200.7 491.807 209.182C514.251 231.901 502.331 265.628 492.69 298.807C489.437 309.952 486.455 321.033 485.121 331.622V331.631C484.869 333.601 484.68 335.553 484.554 337.486C484.445 339.21 484.382 340.925 484.382 342.621C484.381 355.375 486.192 369.617 488.732 383.963Z"
        fill="#005691" />
    <path
        d="M373.008 192.17C373.548 203.712 379.746 220.688 398.881 221.968C424.38 223.668 444.157 203.67 445.65 191.897H438.376C429.178 191.897 387.843 192.009 379.778 192.086C377.236 192.112 374.96 192.139 373.008 192.17Z"
        fill="#FFD7C7" />
    <path
        d="M499.121 385.094C500.923 403.107 502.852 422.807 504.852 443.318H412.569C412.524 441.029 412.497 438.749 412.461 436.487C412.407 432.31 412.359 428.175 412.317 424.083C412.145 407.184 412.136 390.968 412.371 375.673C412.434 371.234 412.518 366.875 412.623 362.594C412.677 360.624 412.731 358.673 412.785 356.739C412.785 356.648 412.785 356.548 412.794 356.457C413.073 347.145 413.467 338.268 413.975 329.825C414.275 325.046 414.611 320.425 414.984 315.962C415.164 313.774 415.359 311.627 415.569 309.524C418.363 280.868 426.057 237.619 430.806 212.329C431.689 207.595 432.473 203.491 433.103 200.235C433.22 199.651 433.329 199.086 433.428 198.557C433.491 198.238 433.554 197.937 433.608 197.645V197.636C434.293 194.125 434.698 192.072 434.734 191.908V191.899C434.734 191.899 438.239 191.653 443.618 191.689C444.925 191.689 446.348 191.717 447.862 191.771C449.349 191.817 450.917 191.89 452.556 191.99C461.765 192.583 472.974 194.161 482.2 198.037C503.572 207.021 511.447 257.438 519.538 291.101C519.557 291.164 519.566 291.228 519.584 291.292L497.554 369.389C498.058 374.451 498.581 379.686 499.121 385.094Z"
        fill="white" />
    <path
        d="M434.753 191.763C434.753 191.763 412.697 277.688 412.697 366.097L450.847 242.517L438.575 226.915L455.779 214.602L452.546 191.957C446.957 190.806 434.753 191.763 434.753 191.763Z"
        fill="#F3F5FD" />
    <path
        d="M386.953 310.8C386.953 313.372 386.935 316.546 386.908 320.258C386.845 326.205 386.746 333.537 386.61 342.01C386.52 348.175 386.403 354.933 386.268 362.221V362.23C386.241 363.68 386.214 365.148 386.187 366.644C386.16 368.048 386.133 369.48 386.106 370.921C385.8 387.329 385.421 405.925 384.998 425.789C384.908 429.948 384.817 434.158 384.727 438.421C384.691 440.044 384.655 441.676 384.619 443.318H307.908C310.764 417.562 313.458 395.665 315.846 377.424C320.495 341.828 323.964 320.149 325.09 310.8L298.438 296.181L297.69 295.77C297.69 295.77 321.18 208.872 340.84 198.037C349.418 193.313 361.167 192.638 368.177 192.319H368.204C368.276 192.319 368.357 192.31 368.43 192.31C376.98 191.917 383.098 191.899 383.098 191.899C383.098 191.899 383.098 191.954 383.107 192.063C383.143 192.601 383.251 194.435 383.423 197.353V197.362C383.441 197.736 383.468 198.137 383.495 198.557C383.522 198.977 383.54 199.414 383.558 199.87C383.801 204.093 384.098 209.848 384.441 216.752V216.761C384.666 221.513 384.9 226.812 385.144 232.53C385.27 235.649 385.405 238.905 385.522 242.261C385.531 242.271 385.531 242.271 385.522 242.28C385.864 251.263 386.18 260.994 386.432 271.1V271.109C386.486 273.398 386.54 275.706 386.594 278.031C386.818 288.797 386.953 299.865 386.953 310.8Z"
        fill="white" />
    <path
        d="M383.111 191.763C383.111 191.763 390.409 287.679 386.375 362.774L363.193 242.517L374.313 228.557L360.368 217.887L368.219 192.186L383.111 191.763Z"
        fill="#F3F5FD" />
    <path
        d="M396.549 370.743C396.549 370.743 351.654 374.888 334.514 348.846C334.078 348.182 333.85 347.401 333.859 346.604C333.869 345.807 334.116 345.031 334.568 344.378C335.02 343.726 335.656 343.226 336.393 342.945C337.13 342.664 337.933 342.615 338.699 342.803C354.414 346.698 387.079 353.435 386.511 341.983L411.402 349.745L396.549 370.743Z"
        fill="#FFD7C7" />
    <path
        d="M517.7 386.973C521.193 386.972 524.639 386.152 527.767 384.576C530.895 383 533.619 380.712 535.726 377.891C537.833 375.07 539.265 371.793 539.91 368.317C540.554 364.841 540.394 361.262 539.442 357.859L517.947 284.284L477.178 303.254L486.828 337.735L395.284 327.794L390.463 373.288L515.286 386.84C516.087 386.928 516.893 386.973 517.7 386.973Z"
        fill="white" />
    <path
        d="M300.58 379.503C301.713 379.503 302.844 379.417 303.964 379.245L444.528 357.71L437.764 312.473L334.967 328.218L347.657 293.251L303.279 276.752L279.365 348.738C278.111 352.196 277.7 355.909 278.167 359.561C278.634 363.214 279.966 366.699 282.048 369.719C284.131 372.74 286.903 375.206 290.13 376.91C293.356 378.613 296.941 379.503 300.58 379.503Z"
        fill="white" />
    <path
        d="M438.755 318.202C438.755 318.202 462.508 316.501 471.701 335.963L440.393 333.089L438.755 318.202Z"
        fill="#FFD7C7" />
    <path d="M446.6 244.99L447.873 191.459L443.626 191.392L442.156 244.771L446.6 244.99Z"
        fill="#0CBC8B" />
    <path
        d="M367.488 226.259L368.432 192.307L373.008 192.17L372.517 226.312C377.777 226.979 382.617 229.565 386.129 233.586C389.64 237.607 391.582 242.786 391.59 248.153V274.505H386.567V248.153C386.583 245.918 386.162 243.701 385.329 241.631C384.495 239.561 383.264 237.679 381.708 236.092C380.153 234.506 378.302 233.247 376.263 232.388C374.224 231.528 372.038 231.086 369.829 231.086C367.621 231.086 365.434 231.528 363.395 232.388C361.357 233.247 359.506 234.506 357.95 236.092C356.394 237.679 355.164 239.561 354.33 241.631C353.496 243.701 353.075 245.918 353.091 248.153V274.505H348.069V248.153C348.076 242.724 350.061 237.489 353.644 233.449C357.227 229.409 362.156 226.849 367.488 226.259Z"
        fill="#0CBC8B" />
    <path
        d="M444.528 258.641C449.905 258.641 454.263 254.229 454.263 248.787C454.263 243.345 449.905 238.933 444.528 238.933C439.152 238.933 434.794 243.345 434.794 248.787C434.794 254.229 439.152 258.641 444.528 258.641Z"
        fill="#0CBC8B" />
    <path
        d="M389.13 278.868C391.51 278.868 393.44 276.915 393.44 274.505C393.44 272.096 391.51 270.142 389.13 270.142C386.749 270.142 384.819 272.096 384.819 274.505C384.819 276.915 386.749 278.868 389.13 278.868Z"
        fill="#0CBC8B" />
    <path
        d="M350.724 278.868C353.105 278.868 355.035 276.915 355.035 274.505C355.035 272.096 353.105 270.142 350.724 270.142C348.344 270.142 346.414 272.096 346.414 274.505C346.414 276.915 348.344 278.868 350.724 278.868Z"
        fill="#0CBC8B" />
    <path
        d="M211.695 217.079C242.018 217.079 266.6 192.197 266.6 161.503C266.6 130.809 242.018 105.927 211.695 105.927C181.371 105.927 156.789 130.809 156.789 161.503C156.789 192.197 181.371 217.079 211.695 217.079Z"
        fill="#F3F5FD" />
    <path
        d="M666.867 399.139C697.19 399.139 721.772 374.256 721.772 343.562C721.772 312.868 697.19 287.986 666.867 287.986C636.543 287.986 611.961 312.868 611.961 343.562C611.961 374.256 636.543 399.139 666.867 399.139Z"
        fill="#F3F5FD" />
    <path
        d="M619.789 190.222C650.113 190.222 674.695 165.34 674.695 134.646C674.695 103.952 650.113 79.0693 619.789 79.0693C589.465 79.0693 564.883 103.952 564.883 134.646C564.883 165.34 589.465 190.222 619.789 190.222Z"
        fill="#F3F5FD" />
    <path
        d="M156.789 386.315C182.671 386.315 203.653 365.077 203.653 338.878C203.653 312.68 182.671 291.442 156.789 291.442C130.907 291.442 109.925 312.68 109.925 338.878C109.925 365.077 130.907 386.315 156.789 386.315Z"
        fill="#F3F5FD" />
    <path d="M218.177 134.646H205.213V188.36H218.177V134.646Z" fill="#FD5D76" />
    <path d="M238.228 168.065V154.942H185.162V168.065H238.228Z" fill="#FD5D76" />
    <path
        d="M161.826 310.036V315.454H131.685V310.036C131.685 309.37 131.946 308.732 132.411 308.261C132.877 307.79 133.507 307.526 134.165 307.525H159.344C160.002 307.525 160.633 307.79 161.099 308.261C161.564 308.731 161.825 309.37 161.826 310.036Z"
        fill="#262626" />
    <path
        d="M161.826 315.454V367.374C161.826 368.132 161.528 368.858 160.999 369.394C160.47 369.929 159.753 370.23 159.005 370.23H134.506C133.758 370.23 133.04 369.929 132.511 369.394C131.982 368.858 131.685 368.132 131.685 367.374V315.454H161.826Z"
        fill="#0CBC8B" />
    <path d="M156.79 328.787H136.721V358.338H156.79V328.787Z" fill="#FAFAFA" />
    <path
        d="M152.983 338.436H140.527C140.277 338.436 140.037 338.335 139.86 338.156C139.683 337.977 139.584 337.734 139.584 337.481C139.584 337.228 139.683 336.985 139.86 336.806C140.037 336.627 140.277 336.526 140.527 336.526H152.983C153.233 336.526 153.473 336.627 153.65 336.806C153.827 336.985 153.926 337.228 153.926 337.481C153.926 337.734 153.827 337.977 153.65 338.156C153.473 338.335 153.233 338.436 152.983 338.436Z"
        fill="#D7E8F4" />
    <path
        d="M152.983 342.49H140.527C140.401 342.494 140.275 342.472 140.157 342.426C140.04 342.38 139.932 342.31 139.841 342.221C139.751 342.132 139.679 342.025 139.629 341.908C139.58 341.79 139.555 341.663 139.555 341.535C139.555 341.407 139.58 341.281 139.629 341.163C139.679 341.045 139.751 340.939 139.841 340.85C139.932 340.761 140.04 340.691 140.157 340.645C140.275 340.599 140.401 340.577 140.527 340.581H152.983C153.109 340.577 153.235 340.599 153.353 340.645C153.471 340.691 153.578 340.761 153.669 340.85C153.76 340.939 153.832 341.045 153.881 341.163C153.93 341.281 153.956 341.407 153.956 341.535C153.956 341.663 153.93 341.79 153.881 341.908C153.832 342.025 153.76 342.132 153.669 342.221C153.578 342.31 153.471 342.38 153.353 342.426C153.235 342.472 153.109 342.494 152.983 342.49Z"
        fill="#D7E8F4" />
    <path
        d="M152.983 346.545H140.527C140.277 346.545 140.037 346.444 139.86 346.265C139.683 346.086 139.584 345.843 139.584 345.59C139.584 345.336 139.683 345.094 139.86 344.915C140.037 344.735 140.277 344.635 140.527 344.635H152.983C153.233 344.635 153.473 344.735 153.65 344.915C153.827 345.094 153.926 345.336 153.926 345.59C153.926 345.843 153.827 346.086 153.65 346.265C153.473 346.444 153.233 346.545 152.983 346.545Z"
        fill="#D7E8F4" />
    <path
        d="M150.403 350.599H143.111C142.984 350.603 142.858 350.581 142.741 350.535C142.623 350.488 142.515 350.419 142.425 350.33C142.334 350.241 142.262 350.134 142.213 350.016C142.163 349.899 142.138 349.772 142.138 349.644C142.138 349.516 142.163 349.39 142.213 349.272C142.262 349.154 142.334 349.048 142.425 348.959C142.515 348.87 142.623 348.8 142.741 348.754C142.858 348.708 142.984 348.686 143.111 348.69H150.409C150.535 348.686 150.661 348.708 150.779 348.754C150.897 348.8 151.004 348.87 151.095 348.959C151.185 349.048 151.257 349.154 151.307 349.272C151.356 349.39 151.381 349.516 151.381 349.644C151.381 349.772 151.356 349.899 151.307 350.016C151.257 350.134 151.185 350.241 151.095 350.33C151.004 350.419 150.897 350.488 150.779 350.535C150.661 350.581 150.535 350.603 150.409 350.599H150.403Z"
        fill="#D7E8F4" />
    <path
        d="M188.56 366.314V338.892C188.56 337.54 187.477 336.444 186.142 336.444H148.715C147.379 336.444 146.296 337.54 146.296 338.892V366.314C146.296 367.666 147.379 368.762 148.715 368.762H186.142C187.477 368.762 188.56 367.666 188.56 366.314Z"
        fill="#262626" />
    <path
        d="M183.049 353.084C183.297 353.084 183.498 352.881 183.498 352.63C183.498 352.38 183.297 352.176 183.049 352.176H151.806C151.558 352.176 151.358 352.38 151.358 352.63C151.358 352.881 151.558 353.084 151.806 353.084H183.049Z"
        fill="#ABCBFF" />
    <path
        d="M154.402 347.328V341.666C154.402 340.815 153.721 340.126 152.88 340.126H152.879C152.039 340.126 151.358 340.815 151.358 341.666V347.328C151.358 348.179 152.039 348.868 152.879 348.868H152.88C153.721 348.868 154.402 348.179 154.402 347.328Z"
        fill="#FAFAFA" />
    <path
        d="M158.7 340.126H158.699C157.859 340.126 157.177 340.815 157.177 341.666V347.328C157.177 348.179 157.859 348.868 158.699 348.868H158.7C159.54 348.868 160.222 348.179 160.222 347.328V341.666C160.222 340.815 159.54 340.126 158.7 340.126Z"
        fill="#FAFAFA" />
    <path
        d="M164.519 340.126H164.518C163.677 340.126 162.996 340.815 162.996 341.666V347.328C162.996 348.179 163.677 348.868 164.518 348.868H164.519C165.359 348.868 166.041 348.179 166.041 347.328V341.666C166.041 340.815 165.359 340.126 164.519 340.126Z"
        fill="#FAFAFA" />
    <path
        d="M170.339 340.126H170.338C169.497 340.126 168.816 340.815 168.816 341.666V347.328C168.816 348.179 169.497 348.868 170.338 348.868H170.339C171.179 348.868 171.86 348.179 171.86 347.328V341.666C171.86 340.815 171.179 340.126 170.339 340.126Z"
        fill="#FAFAFA" />
    <path
        d="M176.157 340.126H176.156C175.316 340.126 174.635 340.815 174.635 341.666V347.328C174.635 348.179 175.316 348.868 176.156 348.868H176.157C176.998 348.868 177.679 348.179 177.679 347.328V341.666C177.679 340.815 176.998 340.126 176.157 340.126Z"
        fill="#FAFAFA" />
    <path
        d="M183.499 347.328V341.666C183.499 340.815 182.818 340.126 181.977 340.126H181.976C181.136 340.126 180.454 340.815 180.454 341.666V347.328C180.454 348.179 181.136 348.868 181.976 348.868H181.977C182.818 348.868 183.499 348.179 183.499 347.328Z"
        fill="#FAFAFA" />
    <path
        d="M154.402 363.541V357.879C154.402 357.029 153.721 356.339 152.88 356.339H152.879C152.039 356.339 151.358 357.029 151.358 357.879V363.541C151.358 364.392 152.039 365.082 152.879 365.082H152.88C153.721 365.082 154.402 364.392 154.402 363.541Z"
        fill="#FAFAFA" />
    <path
        d="M158.7 356.338H158.699C157.859 356.338 157.177 357.028 157.177 357.878V363.54C157.177 364.391 157.859 365.081 158.699 365.081H158.7C159.54 365.081 160.222 364.391 160.222 363.54V357.878C160.222 357.028 159.54 356.338 158.7 356.338Z"
        fill="#FAFAFA" />
    <path
        d="M164.519 356.338H164.518C163.677 356.338 162.996 357.028 162.996 357.878V363.54C162.996 364.391 163.677 365.081 164.518 365.081H164.519C165.359 365.081 166.041 364.391 166.041 363.54V357.878C166.041 357.028 165.359 356.338 164.519 356.338Z"
        fill="#FAFAFA" />
    <path
        d="M170.339 356.338H170.338C169.497 356.338 168.816 357.028 168.816 357.878V363.54C168.816 364.391 169.497 365.081 170.338 365.081H170.339C171.179 365.081 171.86 364.391 171.86 363.54V357.878C171.86 357.028 171.179 356.338 170.339 356.338Z"
        fill="#FAFAFA" />
    <path
        d="M176.157 356.338H176.156C175.316 356.338 174.635 357.028 174.635 357.878V363.54C174.635 364.391 175.316 365.081 176.156 365.081H176.157C176.998 365.081 177.679 364.391 177.679 363.54V357.878C177.679 357.028 176.998 356.338 176.157 356.338Z"
        fill="#FAFAFA" />
    <path
        d="M183.498 363.54V357.878C183.498 357.028 182.817 356.338 181.976 356.338H181.975C181.135 356.338 180.453 357.028 180.453 357.878V363.54C180.453 364.391 181.135 365.081 181.975 365.081H181.976C182.817 365.081 183.498 364.391 183.498 363.54Z"
        fill="#FAFAFA" />
    <path
        d="M611.186 102.817L610.994 104.505L603.346 103.614C602.535 103.519 601.721 103.755 601.082 104.268C600.442 104.781 600.031 105.53 599.937 106.35L593.644 161.717C593.551 162.537 593.783 163.361 594.29 164.008C594.797 164.655 595.537 165.072 596.347 165.167L637.183 169.922C637.585 169.969 637.991 169.935 638.38 169.823C638.768 169.711 639.131 169.523 639.448 169.269C639.764 169.014 640.028 168.7 640.224 168.342C640.421 167.985 640.546 167.592 640.592 167.186L646.885 111.819C646.978 110.999 646.746 110.175 646.239 109.528C645.732 108.881 644.992 108.464 644.182 108.369L636.532 107.478L636.724 105.79C636.757 105.504 636.734 105.214 636.656 104.937C636.578 104.659 636.447 104.4 636.27 104.175C636.093 103.949 635.874 103.761 635.625 103.621C635.376 103.481 635.102 103.393 634.819 103.36L613.587 100.888C613.016 100.821 612.442 100.987 611.992 101.349C611.542 101.711 611.252 102.239 611.186 102.817Z"
        fill="#262626" />
    <path
        d="M602.665 107.56L596.571 161.17C596.484 161.939 597.029 162.634 597.789 162.723L636.332 167.211C637.092 167.3 637.778 166.748 637.866 165.979L643.959 112.369C644.047 111.6 643.502 110.905 642.742 110.816L604.199 106.328C603.439 106.239 602.752 106.791 602.665 107.56Z"
        fill="#FAFAFA" />
    <path
        d="M613.724 104.917L613.159 109.889C613.099 110.412 613.47 110.884 613.986 110.944L632.175 113.063C632.692 113.123 633.159 112.748 633.218 112.225L633.783 107.253C633.843 106.73 633.472 106.258 632.955 106.198L614.767 104.079C614.25 104.019 613.783 104.394 613.724 104.917Z"
        fill="#0CBC8B" />
    <path
        d="M611.616 150.479C611.272 150.439 610.962 150.688 610.923 151.035C610.884 151.382 611.13 151.696 611.473 151.736L633.752 154.33C634.095 154.37 634.405 154.121 634.445 153.774C634.484 153.427 634.238 153.113 633.895 153.073L611.616 150.479Z"
        fill="#9EBCEA" />
    <path
        d="M618.2 154.947C617.857 154.907 617.546 155.156 617.507 155.503C617.468 155.85 617.714 156.164 618.057 156.204L633.34 157.983C633.683 158.023 633.993 157.774 634.033 157.427C634.072 157.08 633.826 156.767 633.483 156.727L618.2 154.947Z"
        fill="#9EBCEA" />
    <path
        d="M604.934 125.882C604.591 125.842 604.281 126.091 604.242 126.438C604.202 126.785 604.448 127.099 604.792 127.139L626.034 129.613C626.378 129.653 626.688 129.404 626.727 129.057C626.767 128.71 626.52 128.396 626.177 128.356L604.934 125.882Z"
        fill="#9EBCEA" />
    <path
        d="M604.519 129.534C604.176 129.494 603.866 129.743 603.826 130.09C603.787 130.437 604.033 130.751 604.376 130.791L619.403 132.541C619.746 132.581 620.056 132.332 620.096 131.985C620.135 131.638 619.889 131.324 619.546 131.284L604.519 129.534Z"
        fill="#9EBCEA" />
    <path
        d="M604.104 133.188C603.761 133.148 603.451 133.397 603.411 133.744C603.372 134.091 603.618 134.405 603.961 134.445L627.276 137.16C627.619 137.2 627.929 136.951 627.969 136.604C628.008 136.257 627.762 135.943 627.419 135.903L604.104 133.188Z"
        fill="#9EBCEA" />
    <path
        d="M603.69 136.842C603.347 136.802 603.037 137.051 602.997 137.398C602.958 137.745 603.204 138.058 603.547 138.098L621.682 140.21C622.025 140.25 622.336 140.001 622.375 139.654C622.414 139.307 622.168 138.994 621.825 138.954L603.69 136.842Z"
        fill="#9EBCEA" />
    <path
        d="M609.384 121.987L610.307 120.4L609.354 120.289L608.723 121.392C608.682 121.287 607.714 118.85 607.714 118.85C607.964 118.776 608.187 118.629 608.357 118.429C608.54 118.197 608.649 117.915 608.671 117.62C608.706 117.385 608.685 117.146 608.609 116.921C608.543 116.735 608.431 116.568 608.284 116.437C608.13 116.303 607.951 116.201 607.758 116.137C607.54 116.063 607.315 116.013 607.087 115.987L605.453 115.797L604.931 120.388L605.953 120.506L606.141 118.852L606.705 118.918L607.858 121.812L606.905 123.544L607.962 123.668L608.593 122.482C608.638 122.587 608.977 123.788 608.977 123.788L609.968 123.905L609.384 121.987ZM606.762 118.09L606.233 118.029L606.38 116.74L606.908 116.802C607.123 116.813 607.331 116.884 607.509 117.007C607.577 117.068 607.627 117.146 607.655 117.233C607.683 117.321 607.687 117.414 607.668 117.503C607.663 117.6 607.636 117.694 607.589 117.779C607.542 117.863 607.477 117.935 607.397 117.989C607.203 118.095 606.979 118.13 606.762 118.09Z"
        fill="#9EBCEA" />
    <path
        d="M634.007 129.268C633.664 129.228 633.354 129.477 633.314 129.824C633.275 130.171 633.521 130.485 633.864 130.525L637.497 130.948C637.84 130.988 638.15 130.739 638.189 130.392C638.229 130.045 637.983 129.731 637.639 129.691L634.007 129.268Z"
        fill="#9EBCEA" />
    <path
        d="M633.59 132.92C633.247 132.88 632.937 133.129 632.897 133.476C632.858 133.823 633.104 134.136 633.447 134.176L637.08 134.599C637.423 134.639 637.733 134.39 637.772 134.043C637.812 133.696 637.566 133.383 637.222 133.343L633.59 132.92Z"
        fill="#9EBCEA" />
    <path
        d="M633.176 136.573C632.833 136.533 632.522 136.782 632.483 137.129C632.444 137.476 632.69 137.79 633.033 137.83L636.665 138.253C637.008 138.293 637.318 138.044 637.358 137.697C637.397 137.35 637.151 137.036 636.808 136.996L633.176 136.573Z"
        fill="#9EBCEA" />
    <path
        d="M632.761 140.226C632.418 140.186 632.108 140.435 632.069 140.782C632.029 141.129 632.275 141.443 632.618 141.483L636.251 141.906C636.594 141.946 636.904 141.697 636.943 141.35C636.983 141.003 636.737 140.689 636.394 140.649L632.761 140.226Z"
        fill="#9EBCEA" />
    <path
        d="M655.613 345.136L652.151 345.72C648.455 345.911 644.816 344.731 641.918 342.402C639.02 340.072 637.06 336.752 636.408 333.064L633.231 314.952L636.683 314.332L639.86 332.444C640.118 333.983 640.674 335.455 641.497 336.775C642.319 338.096 643.392 339.238 644.652 340.137C645.913 341.036 647.337 341.673 648.842 342.012C650.348 342.351 651.904 342.385 653.423 342.112C654.941 341.84 656.391 341.265 657.689 340.422C658.987 339.58 660.107 338.485 660.985 337.202C661.864 335.919 662.482 334.473 662.805 332.946C663.129 331.42 663.15 329.844 662.869 328.31L659.692 310.198L663.144 309.577L666.321 327.689C666.97 331.422 666.237 335.265 664.261 338.484C662.285 341.703 659.206 344.071 655.613 345.136Z"
        fill="#0F1011" />
    <path
        d="M634.919 317.694C636.581 317.694 637.928 316.331 637.928 314.648C637.928 312.966 636.581 311.602 634.919 311.602C633.257 311.602 631.91 312.966 631.91 314.648C631.91 316.331 633.257 317.694 634.919 317.694Z"
        fill="#262626" />
    <path
        d="M661.316 312.952C662.978 312.952 664.326 311.588 664.326 309.906C664.326 308.223 662.978 306.859 661.316 306.859C659.654 306.859 658.307 308.223 658.307 309.906C658.307 311.588 659.654 312.952 661.316 312.952Z"
        fill="#262626" />
    <path
        d="M671.453 383.081C664.642 383.081 657.588 379.213 656.153 371.809L651.625 343.857L655.182 343.268L659.7 371.163C660.89 377.297 667.629 380.139 673.445 379.292L677.763 378.67C679.245 378.457 680.671 377.949 681.959 377.177C683.247 376.404 684.372 375.382 685.269 374.169C686.166 372.955 686.818 371.575 687.187 370.106C687.555 368.637 687.634 367.109 687.418 365.61L685.526 352.438L689.093 351.913L690.985 365.084C691.269 367.059 691.164 369.071 690.678 371.004C690.192 372.938 689.334 374.756 688.153 376.353C686.972 377.95 685.491 379.296 683.795 380.313C682.099 381.33 680.222 381.998 678.27 382.28L673.953 382.902C673.125 383.021 672.29 383.081 671.453 383.081Z"
        fill="#0F1011" />
    <path
        d="M687.395 356.611C691.24 356.611 694.358 353.455 694.358 349.562C694.358 345.67 691.24 342.514 687.395 342.514C683.549 342.514 680.432 345.67 680.432 349.562C680.432 353.455 683.549 356.611 687.395 356.611Z"
        fill="#262626" />
</svg>