<svg width="15" height="15" viewBox="0 0 15 15" fill="none" xmlns="http://www.w3.org/2000/svg">
<path d="M13.9392 3.62438L11.3704 1.04632C11.0351 0.730274 10.5958 0.548929 10.136 0.536785C9.67618 0.524641 9.22796 0.682546 8.8766 0.980462L0.439009 9.44852C0.135974 9.75522 -0.0527107 10.1572 -0.0953718 10.587L-0.498501 14.5105C-0.51113 14.6484 -0.493313 14.7873 -0.446318 14.9174C-0.399324 15.0475 -0.32431 15.1656 -0.226623 15.2633C-0.139022 15.3505 -0.0351308 15.4195 0.0790931 15.4663C0.193317 15.5131 0.315627 15.5368 0.439009 15.5361H0.523385L4.4328 15.1786C4.86106 15.1358 5.2616 14.9464 5.56719 14.6423L14.0048 6.17421C14.3323 5.82698 14.5093 5.36363 14.497 4.88568C14.4847 4.40773 14.2841 3.95417 13.9392 3.62438ZM4.26405 13.2968L1.45152 13.5602L1.70465 10.7375L7.00158 5.48735L9.53286 8.02777L4.26405 13.2968ZM10.7516 6.76697L8.2391 4.24537L10.0672 2.36358L12.6266 4.93222L10.7516 6.76697Z" fill="#616161"/>
</svg>
