<svg width="37" height="37" viewBox="0 0 37 37" fill="none" xmlns="http://www.w3.org/2000/svg">
<path fill-rule="evenodd" clip-rule="evenodd" d="M11.1489 4.32605L11.2039 4.08605C11.3089 3.64005 11.4809 2.98405 11.8359 2.33805C12.1979 1.68005 12.7589 1.01305 13.6389 0.574053C14.5159 0.137053 15.6149 -0.0259467 16.9739 0.154053C18.4739 0.354053 21.4869 0.850053 24.1489 2.20405C26.8259 3.56605 29.3339 5.90905 29.3339 9.81105C29.3339 11.8271 28.5539 13.9901 27.7979 15.4001C27.4349 16.0781 27.0039 16.7261 26.5719 17.0751C26.4729 17.1551 26.3319 17.2551 26.1569 17.3251C25.6768 18.9026 24.7213 20.2934 23.4208 21.3073C22.1204 22.3212 20.5385 22.9087 18.8915 22.9894C17.2445 23.0702 15.6128 22.6403 14.2194 21.7585C12.826 20.8767 11.7389 19.5861 11.1069 18.0631L11.0829 18.0671L10.7279 17.6361L10.7269 17.6341L10.7249 17.6321L10.7199 17.6251L10.7029 17.6051C10.6173 17.4985 10.5349 17.3895 10.4559 17.2781C10.2399 16.9786 10.0364 16.6703 9.84586 16.3541C9.37586 15.5761 8.80886 14.4681 8.44586 13.1751C8.08386 11.8821 7.91786 10.3661 8.29786 8.80205C8.66786 7.28005 9.54086 5.78205 11.1219 4.44405L11.1489 4.32605ZM12.8289 16.9641C13.2626 18.2113 14.0954 19.2807 15.1984 20.0067C16.3014 20.7327 17.6131 21.0748 18.9301 20.9799C20.2472 20.885 21.4963 20.3585 22.4838 19.4819C23.4714 18.6053 24.1424 17.4276 24.3929 16.1311L24.5059 16.1691C24.5019 16.1125 24.4999 16.0558 24.4999 15.9991C24.4999 14.3441 24.2699 13.1891 24.0559 12.4691C24.0141 12.3289 23.9677 12.1902 23.9169 12.0531L23.8759 12.0551H23.8359C23.0881 12.0712 22.3406 12.0143 21.6039 11.8851C19.8869 11.5951 17.5619 10.8711 14.8239 9.19405C14.7639 9.32805 14.7039 9.47905 14.6439 9.64705C14.4479 10.2021 14.2869 10.8611 14.1479 11.5571C14.0249 12.1701 13.9239 12.7871 13.8279 13.3651L13.7909 13.5931C13.6879 14.2131 13.5849 14.8221 13.4649 15.2631C13.2549 16.0291 13.0409 16.5731 12.8289 16.9631V16.9641ZM11.4289 15.1011C10.9772 14.3258 10.6225 13.4979 10.3729 12.6361C10.0739 11.5701 9.96386 10.4161 10.2419 9.27505C10.5119 8.16505 11.1649 6.99805 12.5079 5.89205C12.7499 5.72805 12.8599 5.50805 12.8899 5.44905V5.44805C12.9424 5.33993 12.9846 5.2271 13.0159 5.11105C13.0479 4.99705 13.0829 4.84105 13.1159 4.70105L13.1509 4.54405C13.2459 4.14105 13.3689 3.70205 13.5889 3.30105C13.8029 2.91305 14.0959 2.58105 14.5319 2.36405C14.9699 2.14505 15.6479 1.99505 16.7099 2.13705C18.1629 2.33005 20.8959 2.79305 23.2419 3.98705C25.5719 5.17205 27.3339 6.96605 27.3339 9.81105C27.3339 11.1211 26.8939 12.6111 26.3639 13.7861C26.2639 13.0201 26.1199 12.3941 25.9719 11.8981C25.8687 11.5436 25.74 11.197 25.5869 10.8611C25.5291 10.7366 25.4657 10.6148 25.3969 10.4961L25.3799 10.4691L25.3739 10.4591L25.3709 10.4541L25.3689 10.4511L24.9989 9.87705L24.3369 10.0101L24.3229 10.0131L24.2259 10.0261C24.077 10.0426 23.9276 10.0526 23.7779 10.0561C23.1613 10.068 22.5451 10.0197 21.9379 9.91205C20.3249 9.64005 17.9549 8.89905 15.0759 6.98205L14.3759 6.51505L13.7969 7.12505C13.3199 7.62705 12.9959 8.31205 12.7589 8.97905C12.5169 9.66405 12.3339 10.4291 12.1869 11.1631C12.065 11.7877 11.9543 12.4145 11.8549 13.0431L11.8169 13.2671C11.7099 13.9181 11.6229 14.4151 11.5349 14.7371C11.502 14.8591 11.4667 14.9805 11.4289 15.1011Z" fill="#005691"/>
<path fill-rule="evenodd" clip-rule="evenodd" d="M12.414 23.8551C12.202 23.4331 11.941 22.9121 11.5 23.0131C6.096 24.2431 0.5 27.7941 0.5 31.5701V37.0001H36.5V31.5701C36.5 28.5961 33.028 25.7611 28.913 24.0901L28.908 24.0801C28.9034 24.071 28.8988 24.062 28.894 24.0531L28.861 24.0691C27.768 23.6291 26.63 23.2691 25.5 23.0131C24.997 22.8981 24.477 23.5901 24.25 24.0231H12.5C12.472 23.9711 12.444 23.9131 12.414 23.8551ZM25.903 25.1751C26.34 25.2961 26.775 25.4321 27.204 25.5821C27.216 25.9241 27.19 26.3281 27.134 26.7401C27.077 27.1666 26.986 27.588 26.862 28.0001H25.5C25.3143 28.0002 25.1324 28.052 24.9745 28.1496C24.8166 28.2473 24.689 28.387 24.606 28.5531L23.606 30.5531C23.5365 30.6918 23.5002 30.8449 23.5 31.0001V33.0001C23.5 33.2653 23.6054 33.5197 23.7929 33.7072C23.9804 33.8947 24.2348 34.0001 24.5 34.0001H26.5V32.0001H25.5V31.2361L26.118 30.0001H28.882L29.5 31.2361V32.0001H28.5V34.0001H30.5C30.7652 34.0001 31.0196 33.8947 31.2071 33.7072C31.3946 33.5197 31.5 33.2653 31.5 33.0001V31.0001C31.4998 30.8449 31.4635 30.6918 31.394 30.5531L30.394 28.5531C30.311 28.387 30.1834 28.2473 30.0255 28.1496C29.8676 28.052 29.6857 28.0002 29.5 28.0001H28.934C29.0576 27.4709 29.1405 26.933 29.182 26.3911C30.157 26.8521 31.063 27.3811 31.848 27.9531C33.77 29.3551 34.5 30.6671 34.5 31.5701V35.0001H2.5V31.5701C2.5 30.6671 3.23 29.3551 5.152 27.9531C6.118 27.2481 7.271 26.6101 8.507 26.0821C8.54133 26.879 8.66921 27.6691 8.888 28.4361L8.896 28.4641C8.29816 28.8423 7.85321 29.4196 7.63974 30.094C7.42626 30.7685 7.45799 31.4967 7.72932 32.15C8.00066 32.8033 8.49414 33.3397 9.12261 33.6645C9.75107 33.9893 10.4741 34.0815 11.164 33.9249C11.8538 33.7683 12.4662 33.373 12.8928 32.8087C13.3195 32.2444 13.533 31.5475 13.4957 30.8411C13.4584 30.1346 13.1726 29.4641 12.6889 28.9479C12.2051 28.4317 11.5545 28.1031 10.852 28.0201C10.7242 27.6017 10.6306 27.1736 10.572 26.7401C10.5163 26.3524 10.4932 25.9607 10.503 25.5691C10.5059 25.4943 10.5109 25.4196 10.518 25.3451C10.638 25.3081 10.758 25.2721 10.878 25.2381L11.293 26.0241H25.457L25.903 25.1761V25.1751ZM10.5 32.0161C11.038 32.0161 11.5 31.5761 11.5 31.0011C11.5 30.4271 11.038 29.9861 10.5 29.9861C9.962 29.9861 9.5 30.4261 9.5 31.0011C9.5 31.5751 9.962 32.0161 10.5 32.0161Z" fill="#005691"/>
</svg>
