<svg width="38" height="38" viewBox="0 0 38 38" fill="none" xmlns="http://www.w3.org/2000/svg">
<path d="M6.50016 24.2084C6.2239 24.2084 5.95894 24.3181 5.76359 24.5135C5.56824 24.7088 5.4585 24.9738 5.4585 25.25C5.4585 25.5263 5.56824 25.7913 5.76359 25.9866C5.95894 26.182 6.2239 26.2917 6.50016 26.2917H21.0835C21.3598 26.2917 21.6247 26.182 21.8201 25.9866C22.0154 25.7913 22.1252 25.5263 22.1252 25.25C22.1252 24.9738 22.0154 24.7088 21.8201 24.5135C21.6247 24.3181 21.3598 24.2084 21.0835 24.2084H6.50016ZM5.4585 30.4584C5.4585 30.1821 5.56824 29.9172 5.76359 29.7218C5.95894 29.5265 6.2239 29.4167 6.50016 29.4167H14.8335C15.1098 29.4167 15.3747 29.5265 15.5701 29.7218C15.7654 29.9172 15.8752 30.1821 15.8752 30.4584C15.8752 30.7346 15.7654 30.9996 15.5701 31.1949C15.3747 31.3903 15.1098 31.5 14.8335 31.5H6.50016C6.2239 31.5 5.95894 31.3903 5.76359 31.1949C5.56824 30.9996 5.4585 30.7346 5.4585 30.4584Z" fill="#005691"/>
<path fill-rule="evenodd" clip-rule="evenodd" d="M6.5 3.375C6.5 2.5462 6.82924 1.75134 7.41529 1.16529C8.00134 0.57924 8.7962 0.25 9.625 0.25H17.9583C18.7871 0.25 19.582 0.57924 20.168 1.16529C20.7541 1.75134 21.0833 2.5462 21.0833 3.375H24.2083C25.0371 3.375 25.832 3.70424 26.418 4.29029C27.0041 4.87634 27.3333 5.6712 27.3333 6.5V34.625C27.3333 35.4538 27.0041 36.2487 26.418 36.8347C25.832 37.4208 25.0371 37.75 24.2083 37.75H3.375C2.5462 37.75 1.75134 37.4208 1.16529 36.8347C0.57924 36.2487 0.25 35.4538 0.25 34.625V6.5C0.25 5.6712 0.57924 4.87634 1.16529 4.29029C1.75134 3.70424 2.5462 3.375 3.375 3.375H6.5ZM2.33333 17.9583H8.76146L10.2927 15.3896L12.1833 22.3281L16.3854 16.9167H20.8417C21.1179 16.9167 21.3829 16.8069 21.5782 16.6116C21.7736 16.4162 21.8833 16.1513 21.8833 15.875C21.8833 15.5987 21.7736 15.3338 21.5782 15.1384C21.3829 14.9431 21.1179 14.8333 20.8417 14.8333H15.3646L13.0969 17.7552L11.0135 10.1104L7.57812 15.875H2.33333V6.5C2.33333 6.22373 2.44308 5.95878 2.63843 5.76343C2.83378 5.56808 3.09873 5.45833 3.375 5.45833H6.5C6.5 6.28713 6.82924 7.08199 7.41529 7.66804C8.00134 8.25409 8.7962 8.58333 9.625 8.58333H17.9583C18.7871 8.58333 19.582 8.25409 20.168 7.66804C20.7541 7.08199 21.0833 6.28713 21.0833 5.45833H24.2083C24.4846 5.45833 24.7496 5.56808 24.9449 5.76343C25.1403 5.95878 25.25 6.22373 25.25 6.5V34.625C25.25 34.9013 25.1403 35.1662 24.9449 35.3616C24.7496 35.5569 24.4846 35.6667 24.2083 35.6667H3.375C3.09873 35.6667 2.83378 35.5569 2.63843 35.3616C2.44308 35.1662 2.33333 34.9013 2.33333 34.625V17.9583ZM19 3.375V5.45833C19 5.7346 18.8903 5.99955 18.6949 6.1949C18.4996 6.39025 18.2346 6.5 17.9583 6.5H9.625C9.34873 6.5 9.08378 6.39025 8.88843 6.1949C8.69308 5.99955 8.58333 5.7346 8.58333 5.45833V3.375C8.58333 3.09873 8.69308 2.83378 8.88843 2.63843C9.08378 2.44308 9.34873 2.33333 9.625 2.33333H17.9583C18.2346 2.33333 18.4996 2.44308 18.6949 2.63843C18.8903 2.83378 19 3.09873 19 3.375ZM34.625 8.58333C33.7962 8.58333 33.0013 8.91257 32.4153 9.49862C31.8292 10.0847 31.5 10.8795 31.5 11.7083V32.8573L34.625 37.5448L37.75 32.8573V11.7083C37.75 10.8795 37.4208 10.0847 36.8347 9.49862C36.2487 8.91257 35.4538 8.58333 34.625 8.58333ZM33.5833 11.7083C33.5833 11.4321 33.6931 11.1671 33.8884 10.9718C34.0838 10.7764 34.3487 10.6667 34.625 10.6667C34.9013 10.6667 35.1662 10.7764 35.3616 10.9718C35.5569 11.1671 35.6667 11.4321 35.6667 11.7083V13.7917H33.5833V11.7083ZM33.5833 32.226V15.875H35.6667V32.226L34.625 33.7885L33.5833 32.226Z" fill="#005691"/>
</svg>
