<svg width="31" height="38" viewBox="0 0 31 38" fill="none" xmlns="http://www.w3.org/2000/svg">
<path fill-rule="evenodd" clip-rule="evenodd" d="M6.5 3C6.5 2.20435 6.81607 1.44129 7.37868 0.87868C7.94129 0.316071 8.70435 0 9.5 0H17.5C18.2956 0 19.0587 0.316071 19.6213 0.87868C20.1839 1.44129 20.5 2.20435 20.5 3H23.5C24.2956 3 25.0587 3.31607 25.6213 3.87868C26.1839 4.44129 26.5 5.20435 26.5 6V22H24.5V6C24.5 5.73478 24.3946 5.48043 24.2071 5.29289C24.0196 5.10536 23.7652 5 23.5 5H20.5C20.5 5.79565 20.1839 6.55871 19.6213 7.12132C19.0587 7.68393 18.2956 8 17.5 8H9.5C8.70435 8 7.94129 7.68393 7.37868 7.12132C6.81607 6.55871 6.5 5.79565 6.5 5H3.5C3.23478 5 2.98043 5.10536 2.79289 5.29289C2.60536 5.48043 2.5 5.73478 2.5 6V34C2.5 34.2652 2.60536 34.5196 2.79289 34.7071C2.98043 34.8946 3.23478 35 3.5 35H13.5V37H3.5C2.70435 37 1.94129 36.6839 1.37868 36.1213C0.81607 35.5587 0.5 34.7957 0.5 34V6C0.5 5.20435 0.81607 4.44129 1.37868 3.87868C1.94129 3.31607 2.70435 3 3.5 3H6.5ZM9.5 2C9.23478 2 8.98043 2.10536 8.79289 2.29289C8.60536 2.48043 8.5 2.73478 8.5 3V5C8.5 5.26522 8.60536 5.51957 8.79289 5.70711C8.98043 5.89464 9.23478 6 9.5 6H17.5C17.7652 6 18.0196 5.89464 18.2071 5.70711C18.3946 5.51957 18.5 5.26522 18.5 5V3C18.5 2.73478 18.3946 2.48043 18.2071 2.29289C18.0196 2.10536 17.7652 2 17.5 2H9.5ZM12.5 12V15H9.5V17H12.5V20H14.5V17H17.5V15H14.5V12H12.5ZM13.5 25.665V29.665C13.5 29.9302 13.6054 30.1846 13.7929 30.3721C13.9804 30.5596 14.2348 30.665 14.5 30.665H18.5V28.665H17.025L18.278 27.487C18.8732 26.8838 19.612 26.4418 20.4249 26.2024C21.2378 25.9631 22.0983 25.9343 22.9254 26.1188C23.7525 26.3032 24.5191 26.6949 25.1533 27.2569C25.7875 27.819 26.2685 28.5331 26.551 29.332L28.436 28.665C28.0418 27.5518 27.3724 26.5565 26.4901 25.7716C25.6078 24.9866 24.5412 24.4376 23.3898 24.1757C22.2383 23.9137 21.0392 23.9473 19.9042 24.2732C18.7692 24.5992 17.735 25.207 16.898 26.04L15.5 27.353V25.665H13.5ZM25.167 31.332H29.167C29.4322 31.332 29.6866 31.4374 29.8741 31.6249C30.0616 31.8124 30.167 32.0668 30.167 32.332V36.332H28.167V34.644L26.769 35.957C25.9321 36.7903 24.898 37.3983 23.7629 37.7244C22.6278 38.0505 21.4286 38.0842 20.2771 37.8222C19.1255 37.5602 18.0589 37.0111 17.1766 36.226C16.2943 35.4409 15.625 34.4453 15.231 33.332L17.116 32.665C17.3985 33.464 17.8795 34.178 18.5137 34.7401C19.1479 35.3021 19.9145 35.6938 20.7416 35.8782C21.5687 36.0627 22.4292 36.0339 23.2421 35.7946C24.055 35.5552 24.7938 35.1132 25.389 34.51L26.642 33.332H25.167V31.332Z" fill="#005691"/>
</svg>
