<svg width="34" height="35" viewBox="0 0 34 35" fill="none" xmlns="http://www.w3.org/2000/svg">
<path fill-rule="evenodd" clip-rule="evenodd" d="M1.90476 32.2619V0.833374H0V33.2143C0 33.4669 0.10034 33.7092 0.278946 33.8878C0.457552 34.0664 0.699794 34.1667 0.952381 34.1667H33.3333V32.2619H1.90476Z" fill="#005691"/>
<path fill-rule="evenodd" clip-rule="evenodd" d="M4.76172 17.9762C4.76172 17.7236 4.86206 17.4814 5.04066 17.3027C5.21927 17.1241 5.46151 17.0238 5.7141 17.0238H11.4284C11.681 17.0238 11.9232 17.1241 12.1018 17.3027C12.2804 17.4814 12.3808 17.7236 12.3808 17.9762V33.2143C12.3808 33.4669 12.2804 33.7091 12.1018 33.8877C11.9232 34.0663 11.681 34.1667 11.4284 34.1667H5.7141C5.46151 34.1667 5.21927 34.0663 5.04066 33.8877C4.86206 33.7091 4.76172 33.4669 4.76172 33.2143V17.9762ZM6.66648 18.9286V32.2619H10.476V18.9286H6.66648Z" fill="#005691"/>
<path fill-rule="evenodd" clip-rule="evenodd" d="M4.76172 25.5953C4.76172 25.3427 4.86206 25.1005 5.04066 24.9219C5.21927 24.7433 5.46151 24.6429 5.7141 24.6429H11.4284C11.681 24.6429 11.9232 24.7433 12.1018 24.9219C12.2804 25.1005 12.3808 25.3427 12.3808 25.5953V33.2144C12.3808 33.4669 12.2804 33.7092 12.1018 33.8878C11.9232 34.0664 11.681 34.1667 11.4284 34.1667H5.7141C5.46151 34.1667 5.21927 34.0664 5.04066 33.8878C4.86206 33.7092 4.76172 33.4669 4.76172 33.2144V25.5953ZM6.66648 26.5477V32.262H10.476V26.5477H6.66648ZM14.2855 14.1667C14.2855 13.9141 14.3859 13.6719 14.5645 13.4933C14.7431 13.3147 14.9853 13.2144 15.2379 13.2144H20.9522C21.2048 13.2144 21.447 13.3147 21.6256 13.4933C21.8042 13.6719 21.9046 13.9141 21.9046 14.1667V33.2144C21.9046 33.4669 21.8042 33.7092 21.6256 33.8878C21.447 34.0664 21.2048 34.1667 20.9522 34.1667H15.2379C14.9853 34.1667 14.7431 34.0664 14.5645 33.8878C14.3859 33.7092 14.2855 33.4669 14.2855 33.2144V14.1667ZM16.1903 15.1191V32.262H19.9998V15.1191H16.1903Z" fill="#005691"/>
<path fill-rule="evenodd" clip-rule="evenodd" d="M14.2856 21.7858C14.2856 21.5332 14.386 21.291 14.5646 21.1124C14.7432 20.9338 14.9854 20.8334 15.238 20.8334H20.9523C21.2049 20.8334 21.4471 20.9338 21.6257 21.1124C21.8044 21.291 21.9047 21.5332 21.9047 21.7858V33.2144C21.9047 33.467 21.8044 33.7092 21.6257 33.8878C21.4471 34.0664 21.2049 34.1668 20.9523 34.1668H15.238C14.9854 34.1668 14.7432 34.0664 14.5646 33.8878C14.386 33.7092 14.2856 33.467 14.2856 33.2144V21.7858ZM16.1904 22.7382V32.262H19.9999V22.7382H16.1904ZM23.8095 6.54772C23.8095 6.29513 23.9098 6.05289 24.0884 5.87428C24.267 5.69568 24.5092 5.59534 24.7618 5.59534H30.4761C30.7287 5.59534 30.9709 5.69568 31.1496 5.87428C31.3282 6.05289 31.4285 6.29513 31.4285 6.54772V33.2144C31.4285 33.467 31.3282 33.7092 31.1496 33.8878C30.9709 34.0664 30.7287 34.1668 30.4761 34.1668H24.7618C24.5092 34.1668 24.267 34.0664 24.0884 33.8878C23.9098 33.7092 23.8095 33.467 23.8095 33.2144V6.54772ZM25.7142 7.5001V32.262H29.5237V7.5001H25.7142Z" fill="#005691"/>
<path fill-rule="evenodd" clip-rule="evenodd" d="M23.8096 17.9762C23.8096 17.7236 23.9099 17.4814 24.0885 17.3027C24.2671 17.1241 24.5094 17.0238 24.762 17.0238H30.4762C30.7288 17.0238 30.9711 17.1241 31.1497 17.3027C31.3283 17.4814 31.4286 17.7236 31.4286 17.9762V33.2143C31.4286 33.4669 31.3283 33.7091 31.1497 33.8877C30.9711 34.0663 30.7288 34.1667 30.4762 34.1667H24.762C24.5094 34.1667 24.2671 34.0663 24.0885 33.8877C23.9099 33.7091 23.8096 33.4669 23.8096 33.2143V17.9762ZM25.7143 18.9286V32.2619H29.5239V18.9286H25.7143Z" fill="#005691"/>
</svg>
