<svg width="38" height="38" viewBox="0 0 38 38" fill="none" xmlns="http://www.w3.org/2000/svg">
<path fill-rule="evenodd" clip-rule="evenodd" d="M30.4582 35.6666C31.8395 35.6666 33.1643 35.1179 34.141 34.1411C35.1178 33.1644 35.6665 31.8396 35.6665 30.4583C35.6665 29.077 35.1178 27.7522 34.141 26.7754C33.1643 25.7987 31.8395 25.25 30.4582 25.25C29.0768 25.25 27.7521 25.7987 26.7753 26.7754C25.7986 27.7522 25.2498 29.077 25.2498 30.4583C25.2498 31.8396 25.7986 33.1644 26.7753 34.1411C27.7521 35.1179 29.0768 35.6666 30.4582 35.6666ZM30.4582 37.75C32.392 37.75 34.2467 36.9817 35.6142 35.6143C36.9816 34.2468 37.7498 32.3922 37.7498 30.4583C37.7498 28.5244 36.9816 26.6698 35.6142 25.3023C34.2467 23.9349 32.392 23.1666 30.4582 23.1666C28.5243 23.1666 26.6696 23.9349 25.3022 25.3023C23.9347 26.6698 23.1665 28.5244 23.1665 30.4583C23.1665 32.3922 23.9347 34.2468 25.3022 35.6143C26.6696 36.9817 28.5243 37.75 30.4582 37.75Z" fill="#005691"/>
<path fill-rule="evenodd" clip-rule="evenodd" d="M30.4582 26.8125C30.7344 26.8125 30.9994 26.9222 31.1947 27.1176C31.3901 27.3129 31.4998 27.5779 31.4998 27.8542V30.0271L32.2363 30.7635C32.426 30.96 32.531 31.2231 32.5287 31.4963C32.5263 31.7694 32.4167 32.0306 32.2236 32.2238C32.0305 32.4169 31.7692 32.5265 31.4961 32.5288C31.223 32.5312 30.9598 32.4262 30.7634 32.2365L29.4165 30.8896V27.8542C29.4165 27.5779 29.5262 27.3129 29.7216 27.1176C29.917 26.9222 30.1819 26.8125 30.4582 26.8125ZM8.58317 17.9583H6.49984V20.0417H8.58317V17.9583ZM6.49984 15.875C5.9473 15.875 5.4174 16.0945 5.0267 16.4852C4.636 16.8759 4.4165 17.4058 4.4165 17.9583V20.0417C4.4165 20.5942 4.636 21.1241 5.0267 21.5148C5.4174 21.9055 5.9473 22.125 6.49984 22.125H8.58317C9.1357 22.125 9.66561 21.9055 10.0563 21.5148C10.447 21.1241 10.6665 20.5942 10.6665 20.0417V17.9583C10.6665 17.4058 10.447 16.8759 10.0563 16.4852C9.66561 16.0945 9.1357 15.875 8.58317 15.875H6.49984ZM16.9165 17.9583H14.8332V20.0417H16.9165V17.9583ZM14.8332 15.875C14.2806 15.875 13.7507 16.0945 13.36 16.4852C12.9693 16.8759 12.7498 17.4058 12.7498 17.9583V20.0417C12.7498 20.5942 12.9693 21.1241 13.36 21.5148C13.7507 21.9055 14.2806 22.125 14.8332 22.125H16.9165C17.469 22.125 17.9989 21.9055 18.3896 21.5148C18.7803 21.1241 18.9998 20.5942 18.9998 20.0417V17.9583C18.9998 17.4058 18.7803 16.8759 18.3896 16.4852C17.9989 16.0945 17.469 15.875 16.9165 15.875H14.8332ZM25.2498 17.9583H23.1665V20.0417H25.2498V17.9583ZM23.1665 15.875C22.614 15.875 22.0841 16.0945 21.6934 16.4852C21.3027 16.8759 21.0832 17.4058 21.0832 17.9583V20.0417C21.0832 20.5942 21.3027 21.1241 21.6934 21.5148C22.0841 21.9055 22.614 22.125 23.1665 22.125H25.2498C25.8024 22.125 26.3323 21.9055 26.723 21.5148C27.1137 21.1241 27.3332 20.5942 27.3332 20.0417V17.9583C27.3332 17.4058 27.1137 16.8759 26.723 16.4852C26.3323 16.0945 25.8024 15.875 25.2498 15.875H23.1665ZM8.58317 26.2917H6.49984V28.375H8.58317V26.2917ZM6.49984 24.2083C5.9473 24.2083 5.4174 24.4278 5.0267 24.8185C4.636 25.2092 4.4165 25.7391 4.4165 26.2917V28.375C4.4165 28.9275 4.636 29.4574 5.0267 29.8481C5.4174 30.2388 5.9473 30.4583 6.49984 30.4583H8.58317C9.1357 30.4583 9.66561 30.2388 10.0563 29.8481C10.447 29.4574 10.6665 28.9275 10.6665 28.375V26.2917C10.6665 25.7391 10.447 25.2092 10.0563 24.8185C9.66561 24.4278 9.1357 24.2083 8.58317 24.2083H6.49984ZM16.9165 26.2917H14.8332V28.375H16.9165V26.2917ZM14.8332 24.2083C14.2806 24.2083 13.7507 24.4278 13.36 24.8185C12.9693 25.2092 12.7498 25.7391 12.7498 26.2917V28.375C12.7498 28.9275 12.9693 29.4574 13.36 29.8481C13.7507 30.2388 14.2806 30.4583 14.8332 30.4583H16.9165C17.469 30.4583 17.9989 30.2388 18.3896 29.8481C18.7803 29.4574 18.9998 28.9275 18.9998 28.375V26.2917C18.9998 25.7391 18.7803 25.2092 18.3896 24.8185C17.9989 24.4278 17.469 24.2083 16.9165 24.2083H14.8332Z" fill="#005691"/>
<path fill-rule="evenodd" clip-rule="evenodd" d="M2.33333 6.5C2.33333 6.22373 2.44308 5.95878 2.63843 5.76343C2.83378 5.56808 3.09873 5.45833 3.375 5.45833H8.58333V3.375H3.375C2.5462 3.375 1.75134 3.70424 1.16529 4.29029C0.57924 4.87634 0.25 5.6712 0.25 6.5V31.5C0.25 32.3288 0.57924 33.1237 1.16529 33.7097C1.75134 34.2958 2.5462 34.625 3.375 34.625H24.474C24.0297 33.9887 23.6904 33.2854 23.4688 32.5417H3.375C3.09873 32.5417 2.83378 32.4319 2.63843 32.2366C2.44308 32.0412 2.33333 31.7763 2.33333 31.5V6.5ZM29.4167 23.2396C30.1076 23.1407 30.8091 23.1407 31.5 23.2396V6.5C31.5 5.6712 31.1708 4.87634 30.5847 4.29029C29.9987 3.70424 29.2038 3.375 28.375 3.375H25.25V5.45833H28.375C28.6513 5.45833 28.9162 5.56808 29.1116 5.76343C29.3069 5.95878 29.4167 6.22373 29.4167 6.5V23.2396ZM10.6667 5.45833H21.6698V3.375H10.6667V5.45833Z" fill="#005691"/>
<path fill-rule="evenodd" clip-rule="evenodd" d="M31.5002 12.75H2.3335V10.6666H31.5002V12.75Z" fill="#005691"/>
<path d="M6.5 1.29167C6.5 1.0154 6.60975 0.750448 6.8051 0.555097C7.00045 0.359747 7.2654 0.25 7.54167 0.25C7.81793 0.25 8.08289 0.359747 8.27824 0.555097C8.47359 0.750448 8.58333 1.0154 8.58333 1.29167V6.5C8.58333 6.77627 8.47359 7.04122 8.27824 7.23657C8.08289 7.43192 7.81793 7.54167 7.54167 7.54167C7.2654 7.54167 7.00045 7.43192 6.8051 7.23657C6.60975 7.04122 6.5 6.77627 6.5 6.5V1.29167ZM21.0833 1.29167C21.0833 1.0154 21.1931 0.750448 21.3884 0.555097C21.5838 0.359747 21.8487 0.25 22.125 0.25C22.4013 0.25 22.6662 0.359747 22.8616 0.555097C23.0569 0.750448 23.1667 1.0154 23.1667 1.29167V6.5C23.1667 6.77627 23.0569 7.04122 22.8616 7.23657C22.6662 7.43192 22.4013 7.54167 22.125 7.54167C21.8487 7.54167 21.5838 7.43192 21.3884 7.23657C21.1931 7.04122 21.0833 6.77627 21.0833 6.5V1.29167Z" fill="#005691"/>
</svg>
