<svg width="59" height="54" viewBox="0 0 59 54" fill="none" xmlns="http://www.w3.org/2000/svg">
    <path
        d="M3.74894 12.6967C-1.47747 19.8227 -0.828473 29.0907 3.16632 36.6577C3.25728 36.842 3.35807 37.017 3.4564 37.192C3.51294 37.3133 3.57686 37.4253 3.64569 37.542C3.67765 37.605 3.7219 37.6727 3.76124 37.7333C3.82515 37.8547 3.89399 37.9713 3.96036 38.088L4.34632 38.7087C4.42007 38.823 4.48644 38.935 4.56757 39.0493C4.70524 39.2687 4.86257 39.4857 5.00515 39.705C5.06907 39.7983 5.12807 39.887 5.19936 39.978C5.43774 40.3342 5.692 40.6807 5.96144 41.0163C6.15319 41.266 6.34494 41.5087 6.55144 41.7513C6.61782 41.84 6.69403 41.9287 6.76286 42.0197L7.30369 42.6473C7.37253 42.7173 7.4389 42.8037 7.51019 42.8783C7.75111 43.1537 8.00678 43.422 8.26244 43.695L8.27474 43.709C8.58689 44.0827 8.93682 44.4266 9.31953 44.7357C9.51619 44.9293 9.71286 45.1207 9.92182 45.3073L10.1701 45.5337C10.443 45.7787 10.7183 46.0213 11.0059 46.2547C11.0109 46.2547 11.0133 46.2593 11.0182 46.2617L11.1584 46.3783C11.4091 46.586 11.6623 46.7937 11.9204 46.985L12.2277 47.23C12.4367 47.3887 12.6555 47.5403 12.8669 47.6967L13.2037 47.9417C13.4323 48.105 13.6757 48.266 13.9092 48.4247C13.9953 48.483 14.0813 48.5413 14.1698 48.595L14.2436 48.6487L14.9319 49.0803L15.2269 49.267C15.5907 49.4863 15.9497 49.6963 16.3086 49.9017C16.4094 49.9483 16.5151 50.0043 16.6109 50.0603C16.8764 50.205 17.1518 50.352 17.4197 50.4873C17.5672 50.5667 17.7197 50.6343 17.8721 50.7067C18.0564 50.8047 18.2482 50.9003 18.4473 50.9983C18.4949 51.0121 18.541 51.0301 18.585 51.052C18.6661 51.087 18.7423 51.1243 18.821 51.1617C19.116 51.3017 19.4233 51.437 19.7429 51.57C19.8019 51.5933 19.8658 51.6167 19.9297 51.6493C20.2837 51.7963 20.6402 51.9363 21.0064 52.074C21.09 52.0973 21.1785 52.137 21.2646 52.1673C21.5964 52.2863 21.9382 52.4077 22.2749 52.522L22.3979 52.564C22.7764 52.6853 23.1477 52.802 23.5287 52.914C23.6172 52.9373 23.7082 52.9677 23.8016 52.991C24.1949 53.103 24.5735 53.236 24.9668 53.3107C50.2213 57.6787 57.5594 38.8977 57.5594 38.8977C51.3939 46.5183 40.4543 48.5273 30.09 46.292C29.7065 46.208 29.323 46.0913 28.9346 45.984C28.4667 45.8522 28.002 45.7106 27.5407 45.5593L27.3883 45.5033C27.0539 45.396 26.7319 45.277 26.4049 45.158C26.316 45.1238 26.2258 45.0927 26.1345 45.0647C25.7707 44.9247 25.4216 44.7823 25.0701 44.6353C24.9939 44.612 24.9299 44.5793 24.8537 44.5513C24.5559 44.4215 24.2593 44.2893 23.9638 44.1547C23.8753 44.1175 23.7884 44.077 23.7032 44.0333C23.4722 43.9307 23.2411 43.8117 23.0149 43.6997C22.8596 43.6289 22.7063 43.5542 22.5552 43.4757C22.2749 43.3357 21.9972 43.184 21.7194 43.0393C21.6358 42.9833 21.5399 42.9367 21.444 42.8853C21.0807 42.6809 20.721 42.4709 20.3648 42.2553C20.266 42.1978 20.1693 42.1371 20.0747 42.0733C19.8138 41.9199 19.5581 41.7589 19.3077 41.5903C19.2217 41.5367 19.143 41.4783 19.0545 41.42C18.8095 41.2595 18.5677 41.0946 18.3293 40.9253C18.2261 40.846 18.1154 40.7713 18.0048 40.692C17.7885 40.5287 17.5697 40.377 17.3534 40.2067L17.0633 39.985C16.7841 39.7726 16.5095 39.5548 16.2397 39.3317C16.2119 39.3049 16.1814 39.2807 16.1488 39.2593L15.2957 38.522L15.0499 38.3027C14.8483 38.1067 14.6418 37.92 14.4353 37.7287L14.1944 37.4953C13.9347 37.2501 13.6814 36.9988 13.4348 36.7417L13.3979 36.7043C13.1373 36.4337 12.8817 36.156 12.6284 35.876C12.5621 35.806 12.4982 35.7267 12.4318 35.6497L11.8737 35.0033C11.5903 34.6576 11.3116 34.3084 11.0379 33.9557C5.29032 26.51 3.21057 16.2293 7.81011 7.79901M19.9617 6.69534C16.1758 11.8543 16.3872 18.7563 19.3372 24.214C19.8247 25.1323 20.3818 26.0159 21.004 26.8577C21.5694 27.6277 22.1938 28.54 22.9534 29.163C23.2165 29.4477 23.5016 29.723 23.7991 30.003L24.0204 30.213C24.3006 30.4697 24.5907 30.7193 24.8808 30.9713L24.9201 31.0017C25.2517 31.2764 25.591 31.5425 25.9379 31.7997C26.0214 31.8533 26.0927 31.9163 26.1739 31.97C26.518 32.222 26.8671 32.4647 27.226 32.7073L27.2629 32.7283C27.4153 32.8333 27.5776 32.929 27.7497 33.0317C27.8185 33.0737 27.8972 33.1297 27.9709 33.1717C28.2315 33.3303 28.4872 33.4797 28.7527 33.6313C28.7944 33.6477 28.8313 33.6687 28.8707 33.685C29.0919 33.8133 29.3328 33.937 29.5639 34.0513C29.645 34.098 29.7237 34.133 29.8097 34.1773C29.972 34.2543 30.1342 34.336 30.294 34.4153L30.3727 34.448C30.7046 34.6043 31.0438 34.749 31.3757 34.8913C31.4593 34.924 31.5306 34.9497 31.6019 34.9823C31.8747 35.0943 32.1525 35.2017 32.4279 35.302C32.5508 35.3417 32.6663 35.3883 32.7819 35.4233C33.0326 35.512 33.2981 35.5937 33.5439 35.6753L33.8881 35.7803C34.2495 35.8853 34.6133 36.023 34.9919 36.0837C54.4865 39.1473 59 24.8953 59 24.8953C54.9364 30.4487 47.0722 33.0923 38.6917 31.0273C38.3207 30.9364 37.9527 30.8352 37.5879 30.724C37.4699 30.6913 37.3667 30.6563 37.2536 30.6237C36.9979 30.5397 36.7349 30.4603 36.4866 30.3693L36.1326 30.2433C35.8548 30.1383 35.5745 30.0403 35.3066 29.9283C35.223 29.8933 35.1468 29.87 35.0829 29.835C34.7387 29.688 34.3921 29.5433 34.0553 29.387L33.5489 29.1373L33.2563 28.9973C33.0359 28.8862 32.8187 28.7695 32.6049 28.6473C32.5524 28.6229 32.5016 28.5956 32.4524 28.5657C32.1919 28.4117 31.919 28.2623 31.6707 28.1037C31.5871 28.0593 31.5109 28.0057 31.4322 27.959L30.9209 27.6417C30.5669 27.4083 30.2203 27.1563 29.8687 26.9113C29.7901 26.8437 29.7139 26.7877 29.6377 26.727C25.9526 23.9783 23.0469 20.217 21.6677 15.9633C20.2173 11.537 20.5369 6.57634 23.0444 2.54667M33.5956 2.20367C31.3609 5.31634 31.1471 9.18034 32.686 12.6103C34.3208 16.2573 37.6616 19.1203 41.5556 20.4737C41.7154 20.532 41.8703 20.581 42.0375 20.637L42.2538 20.7C42.48 20.77 42.7086 20.847 42.9422 20.896C53.7121 22.8677 56.6277 15.646 57.4119 14.5867C54.8479 18.082 50.5482 18.9197 45.2727 17.7017C44.8428 17.5997 44.4193 17.4751 44.0042 17.3283C43.4871 17.1562 42.98 16.9584 42.4849 16.7357C41.5477 16.3054 40.6569 15.7897 39.825 15.1957C35.1001 11.796 32.1722 5.31167 35.2549 0.029007"
        fill="#0CBC8B" />
</svg>